<?xml version="1.0" encoding="UTF-8" standalone="no"?>
<!-- Created with Inkscape (http://www.inkscape.org/) -->

<svg
   width="80.373962mm"
   height="30.000071mm"
   viewBox="0 0 80.373962 30.000071"
   version="1.1"
   id="svg1"
   inkscape:version="1.3 (1:1.3+202307231459+0e150ed6c4)"
   sodipodi:docname="differential.svg"
   inkscape:export-filename="differential.pdf"
   inkscape:export-xdpi="600"
   inkscape:export-ydpi="600"
   xmlns:inkscape="http://www.inkscape.org/namespaces/inkscape"
   xmlns:sodipodi="http://sodipodi.sourceforge.net/DTD/sodipodi-0.dtd"
   xmlns="http://www.w3.org/2000/svg"
   xmlns:svg="http://www.w3.org/2000/svg">
  <sodipodi:namedview
     id="namedview1"
     pagecolor="#ffffff"
     bordercolor="#666666"
     borderopacity="1.0"
     inkscape:showpageshadow="2"
     inkscape:pageopacity="0.0"
     inkscape:pagecheckerboard="0"
     inkscape:deskcolor="#d1d1d1"
     inkscape:document-units="mm"
     inkscape:zoom="3.0039562"
     inkscape:cx="112.85118"
     inkscape:cy="60.753216"
     inkscape:window-width="1920"
     inkscape:window-height="1043"
     inkscape:window-x="0"
     inkscape:window-y="0"
     inkscape:window-maximized="1"
     inkscape:current-layer="g21" />
  <defs
     id="defs1">
    <marker
       style="overflow:visible"
       id="marker10"
       refX="0"
       refY="0"
       orient="auto-start-reverse"
       inkscape:stockid="Rounded arrow"
       markerWidth="1"
       markerHeight="1"
       viewBox="0 0 1 1"
       inkscape:isstock="true"
       inkscape:collect="always"
       preserveAspectRatio="xMidYMid">
      <path
         transform="scale(0.7)"
         d="m -0.21114562,-4.1055728 6.42229122,3.21114561 a 1,1 90 0 1 0,1.78885438 L -0.21114562,4.1055728 A 1.236068,1.236068 31.717474 0 1 -2,3 v -6 a 1.236068,1.236068 148.28253 0 1 1.78885438,-1.1055728 z"
         style="fill:context-stroke;fill-rule:evenodd;stroke:none"
         id="path10" />
    </marker>
    <marker
       style="overflow:visible"
       id="RoundedArrow"
       refX="0"
       refY="0"
       orient="auto-start-reverse"
       inkscape:stockid="Rounded arrow"
       markerWidth="1"
       markerHeight="1"
       viewBox="0 0 1 1"
       inkscape:isstock="true"
       inkscape:collect="always"
       preserveAspectRatio="xMidYMid">
      <path
         transform="scale(0.7)"
         d="m -0.21114562,-4.1055728 6.42229122,3.21114561 a 1,1 90 0 1 0,1.78885438 L -0.21114562,4.1055728 A 1.236068,1.236068 31.717474 0 1 -2,3 v -6 a 1.236068,1.236068 148.28253 0 1 1.78885438,-1.1055728 z"
         style="fill:context-stroke;fill-rule:evenodd;stroke:none"
         id="path8" />
    </marker>
  </defs>
  <g
     inkscape:label="Layer 1"
     inkscape:groupmode="layer"
     id="layer1"
     transform="translate(-28.310453,-72.096765)">
    <g
       id="g21"
       transform="matrix(1.081453,0,0,1.0819889,-2.3181866,-8.35996)"
       style="stroke-width:0.924453">
      <path
         id="path6"
         style="fill:#1f77b4;fill-opacity:0.3;stroke:#1f77b4;stroke-width:0.277338;stroke-linecap:round;stroke-opacity:0.984182"
         d="m 43.453417,97.129687 a 9.2200959,9.3893625 0 0 1 -5.7729,2.06824 9.2200959,9.3893625 0 0 1 -9.2201,-9.38936 9.2200959,9.3893625 0 0 1 3.45824,-7.33015" />
      <path
         id="path1-6"
         style="fill:none;fill-opacity:0.7;stroke:#1f77b4;stroke-width:0.277338;stroke-linecap:round;stroke-opacity:0.984182"
         d="m 40.801617,93.758147 a 9.2200959,3.8708129 0 0 1 -3.1211,0.22852 9.2200959,3.8708129 0 0 1 -9.2201,-3.87081 9.2200959,3.8708129 0 0 1 0.03805,-0.35133" />
      <g
         id="g1"
         style="stroke:#1f77b4;stroke-opacity:0.5">
        <path
           id="path2"
           style="display:inline;fill:none;fill-opacity:0.7;stroke:#1f77b4;stroke-width:0.277338;stroke-linecap:round;stroke-dasharray:0.277338, 1.66402;stroke-dashoffset:0;stroke-opacity:0.5"
           d="m 28.498472,89.764527 a 9.2200959,3.8708129 0 0 1 9.182045,-3.51949 9.2200959,3.8708129 0 0 1 9.15749,3.42053" />
        <path
           id="path1"
           style="display:inline;fill:none;fill-opacity:0.3;stroke:#1f77b4;stroke-width:0.277338;stroke-linecap:round;stroke-dasharray:0.277338, 1.66402;stroke-dashoffset:0;stroke-opacity:0.5"
           d="m 31.918657,82.478417 a 9.2200959,9.3893625 0 0 1 5.76186,-2.05922 9.2200959,9.3893625 0 0 1 9.22009,9.38937 v 0 a 9.2200959,9.3893625 0 0 1 -3.07617,7.00097" />
        <path
           id="path5"
           style="display:inline;fill:none;fill-opacity:0.7;stroke:#1f77b4;stroke-width:0.277338;stroke-linecap:round;stroke-dasharray:0.277338, 1.66402;stroke-dashoffset:0;stroke-opacity:0.5"
           d="m 46.838007,89.665567 a 9.2200959,3.8708129 0 0 1 0.0626,0.45029 v 0 a 9.2200959,3.8708129 0 0 1 -6.09899,3.64229" />
      </g>
      <path
         style="fill:#1f77b4;fill-opacity:0.5;stroke:#1f77b4;stroke-width:0.244594px;stroke-linecap:butt;stroke-linejoin:miter;stroke-opacity:1"
         d="m 42.293497,74.508237 -12.518532,5.24975 13.666292,17.35204 10.48389,-8.27893 z"
         id="path3-0" />
      <path
         style="fill:none;stroke:#000000;stroke-width:0.244594px;stroke-linecap:butt;stroke-linejoin:miter;stroke-opacity:1;marker-end:url(#marker10)"
         d="M 42.924727,84.719519 42.447646,78.909446"
         id="path18" />
      <ellipse
         style="fill:#d62728;fill-opacity:1;stroke:none;stroke-width:0.277336;stroke-linecap:round;stroke-opacity:0.984182"
         id="path4-3"
         cx="42.924728"
         cy="84.719521"
         rx="0.47708231"
         ry="0.47709697" />
      <path
         id="path13"
         style="fill:#ff7f0e;fill-opacity:0.3;stroke:#ff7f0e;stroke-width:0.277337;stroke-linecap:round"
         d="m 84.869103,84.393562 c 0.107554,0.101206 0.212634,0.205493 0.315106,0.312756 1.475653,1.544642 2.640591,1.536931 4.108532,10e-7 1.467941,-1.536931 3.491979,-2.47202 5.653085,-2.472022 4.17381,-2e-6 7.557364,3.290709 7.557364,7.349999 0,4.05929 -3.383554,7.350001 -7.557364,7.349999 -2.027092,-1e-6 -4.013017,-0.828437 -5.390074,-2.198111 -1.377057,-1.369674 -3.229244,-1.397928 -4.634555,1e-6 v 0 c -1.405311,1.397929 -3.362984,2.198109 -5.390076,2.19811 -1.372608,0 -2.659752,-0.355892 -3.76919,-0.97797" />
      <path
         id="path16"
         style="fill:none;fill-opacity:0.3;stroke:#ff7f0e;stroke-width:0.277337;stroke-linecap:round"
         d="m 102.49343,89.451673 c 0.006,0.04393 0.01,0.08814 0.01,0.132621 0,1.428825 -3.383554,2.58712 -7.557364,2.587119 -2.02709,0 -4.013018,-0.291601 -5.390074,-0.773711 -1.377056,-0.48211 -3.229245,-0.492055 -4.634555,1e-6 v 0 c -1.40531,0.492056 -3.362986,0.77371 -5.390076,0.77371 -0.262664,0 -0.522199,-0.0046 -0.777957,-0.01354" />
      <g
         id="g2"
         style="stroke:#ff7f0e;stroke-opacity:0.5">
        <path
           id="path15"
           style="display:inline;fill:none;fill-opacity:0.3;stroke:#ff7f0e;stroke-width:0.277337;stroke-linecap:round;stroke-opacity:0.5;stroke-dasharray:0.27733701,1.66402209;stroke-dashoffset:0"
           d="m 75.761931,95.956325 c -2.264128,-1.26953 -3.788165,-3.647687 -3.788166,-6.372029 0,-4.059288 3.383548,-7.349999 7.557356,-7.349999 2.011034,10e-7 3.896702,0.803052 5.337982,2.159265" />
        <path
           id="path13-5"
           style="display:inline;fill:none;fill-opacity:0.3;stroke:#ff7f0e;stroke-width:0.277337;stroke-linecap:round;stroke-dasharray:0.277337, 1.66402;stroke-dashoffset:0;stroke-opacity:0.5"
           d="m 78.753404,92.157872 c -3.80831,-0.133317 -6.779398,-1.234672 -6.779399,-2.573578 0,-0.04448 0.0033,-0.08869 0.0098,-0.132621" />
        <path
           id="path14"
           style="display:inline;fill:none;fill-opacity:0.3;stroke:#ff7f0e;stroke-width:0.277337;stroke-linecap:round;stroke-dasharray:0.277337, 1.66402;stroke-dashoffset:0;stroke-opacity:0.5"
           d="m 71.983523,89.451673 c 0.201661,-1.367194 3.503717,-2.454497 7.547598,-2.454497 2.161106,0 4.177435,0.326427 5.653088,0.870124 1.475653,0.543697 2.640591,0.540982 4.108532,0 1.467941,-0.540982 3.491979,-0.870123 5.653085,-0.870124 4.04388,-10e-7 7.345944,1.087303 7.547604,2.454497" />
      </g>
      <path
         style="fill:#ff7f0e;fill-opacity:0.5;stroke:#ff7f0e;stroke-width:0.244594px;stroke-linecap:butt;stroke-linejoin:miter;stroke-opacity:1"
         d="M 75.19306,75.534228 87.711592,80.783978 74.0453,98.136021 63.56141,89.857088 Z"
         id="path3-0-8" />
      <path
         style="fill:none;stroke:#000000;stroke-width:0.244594px;stroke-linecap:butt;stroke-linejoin:miter;stroke-opacity:1;marker-end:url(#RoundedArrow)"
         d="m 75.089577,85.176102 6.841735,-2.847686"
         id="path19"
         sodipodi:nodetypes="cc" />
      <ellipse
         style="fill:#d62728;fill-opacity:1;stroke:none;stroke-width:0.277336;stroke-linecap:round;stroke-opacity:0.984182"
         id="path4-3-6"
         cx="75.089577"
         cy="85.176102"
         rx="0.47708231"
         ry="0.47709697" />
      <path
         style="fill:none;stroke:#000000;stroke-width:0.244594px;stroke-linecap:round;stroke-linejoin:miter;stroke-opacity:1;marker-end:url(#RoundedArrow)"
         d="m 51.76458,85.760719 c 3.727813,-2.386918 7.96476,-4.064502 14.17216,-0.918666"
         id="path20"
         sodipodi:nodetypes="cc" />
      <path
         style="fill:none;stroke:#000000;stroke-width:0.244594px;stroke-linecap:butt;stroke-linejoin:miter;stroke-opacity:1;marker-end:url(#marker10)"
         d="M 41.837916,98.321936 C 52.871942,103.49503 69.392232,103.00584 77.94888,97.82054"
         id="path21"
         sodipodi:nodetypes="cc" />
    </g>
  </g>
</svg>
