<?xml version="1.0" encoding="UTF-8" standalone="no"?>
<!-- Created with Inkscape (http://www.inkscape.org/) -->

<svg
   width="120mm"
   height="24mm"
   viewBox="0 0 120 24"
   version="1.1"
   id="svg1"
   inkscape:version="1.3 (1:1.3+202307231459+0e150ed6c4)"
   sodipodi:docname="set_properties.svg"
   xmlns:inkscape="http://www.inkscape.org/namespaces/inkscape"
   xmlns:sodipodi="http://sodipodi.sourceforge.net/DTD/sodipodi-0.dtd"
   xmlns="http://www.w3.org/2000/svg"
   xmlns:svg="http://www.w3.org/2000/svg">
  <sodipodi:namedview
     id="namedview1"
     pagecolor="#ffffff"
     bordercolor="#666666"
     borderopacity="1.0"
     inkscape:showpageshadow="2"
     inkscape:pageopacity="0.0"
     inkscape:pagecheckerboard="0"
     inkscape:deskcolor="#d1d1d1"
     inkscape:document-units="mm"
     inkscape:zoom="1.4142136"
     inkscape:cx="96.166522"
     inkscape:cy="186.32264"
     inkscape:window-width="1920"
     inkscape:window-height="1043"
     inkscape:window-x="0"
     inkscape:window-y="0"
     inkscape:window-maximized="1"
     inkscape:current-layer="layer1" />
  <defs
     id="defs1" />
  <g
     inkscape:label="Layer 1"
     inkscape:groupmode="layer"
     id="layer1">
    <g
       id="g3"
       transform="translate(-2.3479185,-2.9834094)">
      <path
         style="fill:#1f77b4;fill-opacity:0.3;stroke:#1f77b4;stroke-width:0.3;stroke-linecap:butt"
         id="path1"
         sodipodi:type="arc"
         sodipodi:cx="14.321673"
         sodipodi:cy="14.983503"
         sodipodi:rx="9.9934797"
         sodipodi:ry="10"
         sodipodi:start="1.5707963"
         sodipodi:end="4.712389"
         sodipodi:arc-type="arc"
         d="m 14.321673,24.983503 a 9.9934797,10 0 0 1 -8.6546069,-5 9.9934797,10 0 0 1 0,-9.9999997 9.9934797,10 0 0 1 8.6546069,-5"
         sodipodi:open="true" />
      <path
         style="fill:#1f77b4;fill-opacity:0.3;stroke:#1f77b4;stroke-width:0.3;stroke-linecap:butt;stroke-dasharray:1.8, 1.8;stroke-dashoffset:0"
         id="path1-5"
         sodipodi:type="arc"
         sodipodi:cx="-14.321761"
         sodipodi:cy="14.983503"
         sodipodi:rx="9.9934797"
         sodipodi:ry="10"
         sodipodi:start="1.5707963"
         sodipodi:end="4.712389"
         sodipodi:arc-type="arc"
         d="m -14.321761,24.983503 a 9.9934797,10 0 0 1 -8.654607,-5 9.9934797,10 0 0 1 0,-9.9999997 9.9934797,10 0 0 1 8.654607,-5"
         transform="scale(-1,1)"
         sodipodi:open="true" />
      <ellipse
         style="fill:#1f77b4;fill-opacity:0.3;stroke:#1f77b4;stroke-width:0.3;stroke-linecap:butt;stroke-dasharray:1.8, 1.8;stroke-dashoffset:0"
         id="path2"
         cx="38.302662"
         cy="15.103514"
         rx="9.9934797"
         ry="10" />
      <ellipse
         style="fill:#1f77b4;fill-opacity:0.3;stroke:#1f77b4;stroke-width:0.3;stroke-linecap:butt;stroke-dasharray:none;stroke-dashoffset:0"
         id="path2-6"
         cx="86.271362"
         cy="14.983409"
         rx="9.9934797"
         ry="10" />
      <ellipse
         style="fill:none;fill-opacity:0.3;stroke:#1f77b4;stroke-width:0.3;stroke-linecap:butt;stroke-dasharray:none;stroke-dashoffset:0"
         id="path2-6-8"
         cx="110.37408"
         cy="14.983409"
         rx="9.9934797"
         ry="10" />
      <g
         id="g2"
         transform="matrix(0.7994784,0,0,0.8,-10.444852,2.863315)"
         style="stroke-width:1.25041">
        <path
           id="rect2"
           style="fill:#1f77b4;fill-opacity:0.3;stroke:none;stroke-width:0.375122;stroke-dasharray:2.25073, 2.25073"
           d="M 75.828446,0.15000001 V 30.150236 H 105.82817 V 0.15000001 Z M 90.825981,2.6501058 A 12.5,12.5 0 0 1 103.32599,15.150118 12.5,12.5 0 0 1 90.825981,27.65013 12.5,12.5 0 0 1 78.325968,15.150118 12.5,12.5 0 0 1 90.825981,2.6501058 Z" />
        <circle
           style="fill:none;fill-opacity:0.3;stroke:#1f77b4;stroke-width:0.375122;stroke-linecap:butt;stroke-dasharray:2.25073, 2.25073;stroke-dashoffset:0"
           id="path2-7"
           cx="90.826164"
           cy="15.150118"
           r="12.5" />
      </g>
    </g>
  </g>
</svg>
